<?xml version="1.0" standalone="no"?>
<!DOCTYPE svg PUBLIC "-//W3C//DTD SVG 20010904//EN"
 "http://www.w3.org/TR/2001/REC-SVG-20010904/DTD/svg10.dtd">
<svg version="1.0" xmlns="http://www.w3.org/2000/svg"
 width="405.000000pt" height="405.000000pt" viewBox="0 0 405.000000 405.000000"
 preserveAspectRatio="xMidYMid meet">
<metadata>
Created by potrace 1.11, written by Peter Selinger 2001-2013
</metadata>
<g transform="translate(0.000000,405.000000) scale(0.100000,-0.100000)"
fill="#000000" stroke="none">
<path d="M246 2555 c-56 -52 -104 -205 -109 -350 -4 -95 8 -148 42 -184 24
-25 37 -31 73 -31 50 0 86 25 115 79 27 49 39 49 63 -1 11 -25 34 -52 51 -62
40 -24 110 -23 160 2 37 19 39 19 55 1 24 -27 81 -25 111 3 l23 22 20 -22 c26
-28 69 -28 103 -2 l26 21 11 -21 c21 -40 109 -8 110 41 1 8 9 -2 18 -21 13
-26 24 -36 46 -38 36 -4 78 13 107 44 l22 24 34 -35 c29 -30 40 -35 81 -35 29
0 59 8 79 20 32 19 33 19 43 0 7 -13 21 -20 38 -20 32 0 42 6 66 40 l18 25 -6
-28 c-4 -17 -31 -52 -66 -84 -91 -84 -116 -136 -96 -199 8 -25 42 -42 74 -38
59 10 97 67 133 202 20 73 23 79 70 110 l49 32 0 -31 c0 -24 3 -30 16 -25 9 3
20 6 25 6 10 0 12 38 3 93 -4 22 -12 37 -20 37 -8 0 -36 -16 -63 -35 l-49 -36
5 33 c3 18 11 66 18 106 11 67 11 74 -5 82 -27 14 -55 -16 -75 -80 -40 -127
-98 -166 -74 -49 5 24 12 63 15 87 6 42 6 42 -25 42 -27 0 -34 -6 -46 -34 -8
-19 -18 -60 -21 -91 -8 -63 -36 -95 -84 -95 -40 0 -61 30 -64 92 -4 70 -2 74
42 73 20 -1 52 2 70 7 27 7 33 13 30 31 -2 17 -11 23 -42 27 -36 5 -38 6 -22
19 54 44 78 177 40 215 -54 54 -134 -23 -174 -169 -15 -53 -20 -60 -48 -67
-25 -7 -32 -14 -32 -34 0 -19 6 -26 28 -30 26 -5 28 -9 27 -50 0 -35 -7 -50
-35 -79 -56 -58 -76 -46 -59 36 6 30 13 68 15 84 3 17 7 36 9 42 2 7 -4 17
-14 22 -21 12 -61 -11 -61 -34 0 -24 -40 -123 -60 -147 -10 -13 -22 -19 -26
-15 -10 10 -6 70 7 122 21 78 22 76 -19 73 -33 -3 -38 -7 -50 -43 -7 -22 -16
-61 -19 -87 -6 -51 -41 -95 -66 -85 -14 5 -15 25 -3 92 17 93 17 94 -3 104
-10 6 -21 8 -24 5 -3 -3 -15 1 -27 9 -57 40 -180 -64 -180 -150 0 -45 -94 -87
-140 -63 -22 12 -21 13 26 36 60 29 83 58 84 107 0 52 -27 77 -86 77 -40 0
-51 -5 -83 -38 -20 -20 -41 -46 -47 -56 -13 -24 -44 -15 -44 13 0 22 -55 81
-76 81 -9 0 -3 19 21 63 68 123 56 237 -24 237 -16 0 -40 -11 -55 -25z m59
-55 c3 -11 0 -46 -9 -77 -16 -62 -76 -189 -76 -162 0 33 32 183 47 220 17 43
28 49 38 19z m1136 -37 c3 -50 -29 -136 -55 -146 -12 -5 -12 5 0 56 15 67 32
107 46 107 4 0 9 -8 9 -17z m-1170 -255 c1 -7 2 -17 4 -23 1 -5 3 -15 3 -22 1
-6 9 -19 18 -28 21 -21 11 -59 -20 -73 -20 -9 -27 -7 -42 9 -22 24 -22 90 0
123 18 28 35 34 37 14z m299 -11 c0 -25 -22 -49 -52 -60 -23 -8 -24 29 -2 61
21 30 54 29 54 -1z m264 -4 c-27 -126 -53 -166 -80 -128 -20 27 5 116 39 140
34 24 48 19 41 -12z m780 -325 c-19 -64 -39 -98 -59 -98 -20 0 -19 39 2 70 16
25 64 80 69 80 2 0 -4 -24 -12 -52z"/>
<path d="M2085 2546 c-19 -20 -43 -65 -59 -108 -63 -178 -57 -381 13 -435 20
-15 82 -17 113 -2 24 10 68 67 68 86 0 19 41 23 47 5 24 -78 64 -104 148 -100
43 3 70 10 92 26 30 21 31 21 48 2 31 -34 108 -41 170 -16 48 21 95 65 95 91
0 38 -16 38 -65 1 -53 -41 -102 -53 -136 -35 -22 12 -22 13 28 35 56 24 81 54
87 103 5 48 -25 81 -75 81 -87 0 -145 -66 -148 -167 -1 -25 -61 -61 -96 -58
-48 4 -55 6 -55 15 0 5 19 18 43 28 53 24 73 47 82 92 10 52 -22 90 -76 90
-59 0 -96 -23 -124 -77 -14 -26 -55 -43 -55 -22 0 28 -34 78 -61 89 -34 15
-34 14 -11 48 40 60 60 126 57 185 -6 81 -73 103 -130 43z m66 -38 c6 -55 -35
-189 -75 -243 -25 -34 16 181 46 238 10 20 27 23 29 5z m-31 -314 c0 -14 9
-39 20 -55 17 -22 19 -33 10 -49 -17 -31 -44 -42 -66 -25 -27 19 -27 105 0
134 25 28 36 26 36 -5z m295 16 c11 -18 -6 -50 -35 -65 -16 -8 -31 -15 -35
-15 -11 0 -4 26 15 58 20 32 43 41 55 22z m250 0 c11 -18 -4 -45 -36 -64 -17
-10 -33 -16 -36 -13 -8 9 17 75 30 81 20 8 36 6 42 -4z"/>
<path d="M3405 2361 c-39 -14 -49 -22 -47 -37 2 -10 5 -20 7 -22 3 -3 117 28
123 33 6 5 -18 45 -26 44 -4 0 -29 -9 -57 -18z"/>
<path d="M3550 2358 c0 -22 5 -26 46 -32 67 -9 71 -8 77 13 6 23 -4 28 -73 37
-48 6 -50 6 -50 -18z"/>
<path d="M3733 2301 c-13 -20 -11 -24 38 -69 34 -31 37 -32 53 -16 16 16 16
18 -6 41 -13 14 -34 33 -49 43 -24 18 -26 18 -36 1z"/>
<path d="M3229 2280 c-50 -23 -55 -28 -48 -48 l8 -22 58 25 c31 14 58 27 59
28 1 1 -3 11 -9 23 l-12 21 -56 -27z"/>
<path d="M3100 2188 c-14 -11 -35 -29 -48 -39 -19 -15 -21 -21 -12 -38 10 -20
12 -20 60 16 55 41 55 42 38 66 -12 15 -15 14 -38 -5z"/>
<path d="M3470 2165 c0 -8 -4 -15 -10 -15 -5 0 -10 -7 -10 -15 0 -8 5 -15 10
-15 6 0 10 -7 10 -15 0 -11 9 -14 33 -12 18 2 31 8 30 15 -2 7 2 12 7 12 6 0
10 7 10 15 0 8 -4 15 -10 15 -5 0 -9 5 -7 12 1 7 -12 13 -30 15 -24 2 -33 -1
-33 -12z"/>
<path d="M3614 2165 c2 -7 -3 -16 -12 -20 -16 -6 -16 -7 -1 -18 9 -7 17 -16
18 -22 1 -5 14 -11 29 -12 33 -3 52 30 38 64 -7 15 -19 21 -44 21 -23 0 -32
-4 -28 -13z"/>
<path d="M3872 2151 c-11 -7 -8 -19 15 -63 25 -50 30 -55 51 -47 l22 8 -27 56
c-27 55 -36 62 -61 46z"/>
<path d="M2959 2067 c-8 -6 -27 -22 -42 -33 -27 -22 -29 -54 -2 -54 20 0 90
60 90 78 0 21 -25 26 -46 9z"/>
<path d="M3689 2053 c-6 -7 -8 -13 -3 -13 5 0 3 -4 -3 -8 -22 -14 6 -59 37
-59 30 0 57 42 40 62 -5 7 -7 15 -3 18 3 4 2 7 -3 8 -5 0 -19 2 -32 3 -12 2
-27 -3 -33 -11z"/>
<path d="M3360 2026 c0 -13 -7 -26 -15 -30 -20 -7 -19 -35 0 -43 14 -5 14 -7
-1 -24 -34 -38 27 -175 87 -194 10 -4 19 -13 19 -20 0 -21 30 -33 75 -30 55 3
55 3 55 23 0 9 16 27 35 39 60 39 99 144 67 183 -17 21 -103 46 -154 45 -15
-1 -30 5 -32 12 -3 7 -11 13 -19 13 -8 0 -13 10 -13 23 1 16 -5 23 -21 25 -17
2 -23 -2 -23 -15 -1 -17 -1 -17 -11 0 -15 26 -49 22 -49 -7z m243 -77 c66 -14
88 -32 65 -55 -50 -50 -318 -40 -318 12 0 12 4 12 21 2 17 -11 22 -10 33 4 11
15 13 15 22 0 14 -22 48 -8 41 18 -8 30 43 37 136 19z m-174 -100 c45 -10 168
-4 205 10 37 15 41 10 27 -32 -14 -41 -72 -85 -125 -94 -41 -6 -114 17 -139
45 -9 10 -23 35 -32 56 l-16 38 23 -8 c13 -4 38 -11 57 -15z m135 -141 c-7
-10 -94 -11 -94 0 0 4 22 8 50 8 27 0 47 -3 44 -8z"/>
<path d="M2821 1941 c-39 -34 -42 -40 -32 -59 13 -25 20 -23 75 25 35 31 39
56 12 66 -6 3 -31 -12 -55 -32z"/>
<path d="M3951 1952 c-23 -4 -23 -6 -16 -65 3 -34 8 -63 9 -64 1 -1 11 0 23 3
20 5 21 11 16 67 -3 34 -6 62 -7 62 0 1 -12 -1 -25 -3z"/>
<path d="M1855 1888 c-11 -6 -21 -12 -23 -13 -2 -2 9 -27 24 -58 25 -51 29
-54 51 -44 28 13 28 10 -5 74 -24 46 -29 51 -47 41z"/>
<path d="M2687 1815 c-51 -39 -53 -43 -34 -68 11 -15 16 -14 57 19 53 42 54
44 37 67 -12 17 -16 16 -60 -18z"/>
<path d="M1961 1698 c-14 -23 -14 -23 61 -79 l27 -20 12 22 c10 19 6 26 -32
60 -24 21 -46 38 -49 39 -3 0 -11 -10 -19 -22z"/>
<path d="M2533 1694 c-49 -23 -51 -26 -41 -49 7 -16 15 -21 27 -16 9 4 35 15
58 25 39 16 41 19 31 42 -13 29 -10 29 -75 -2z"/>
<path d="M2358 1603 c-47 -14 -56 -25 -39 -51 7 -11 17 -11 52 -2 65 18 78 27
72 50 -6 23 -20 24 -85 3z"/>
<path d="M2126 1576 c-7 -28 0 -33 65 -41 52 -6 57 -5 62 14 6 26 3 28 -66 39
-51 8 -56 7 -61 -12z"/>
</g>
</svg>
